STARTFONT 2.1
FONT -DEC-Terminal-Medium-R-Narrow--14-100-100-100-C-60-DEC-DECtech
SIZE 10 100 100
FONTBOUNDINGBOX 6 14 0 -2

STARTPROPERTIES 24
FOUNDRY "DEC"
FAMILY_NAME "Terminal"
WEIGHT_NAME "Medium"
SLANT "R"
SETWIDTH_NAME "Narrow"
ADD_STYLE_NAME ""
PIXEL_SIZE 14
POINT_SIZE 100
RESOLUTION_X 100
RESOLUTION_Y 100
SPACING "C"
AVERAGE_WIDTH 60
CHARSET_REGISTRY "DEC"
CHARSET_ENCODING "DECtech"
CAP_HEIGHT 9
COPYRIGHT "Copyright (c) 1991 Digital Equipment Corporation. All Rights Reserved."
_DEC_PRODUCTINFO "DECterm Fonts V2.2-1, 11-Nov-1991"
FULL_NAME "Terminal Narrow"
WEIGHT 10
X_HEIGHT -1
QUAD_WIDTH 6
DEFAULT_CHAR 159
FONT_DESCENT 2
FONT_ASCENT 12
ENDPROPERTIES

CHARS 182

STARTCHAR space
ENCODING 32
SWIDTH 430 0
DWIDTH 6 0
BBX 1 1 0 0
BITMAP
00
ENDCHAR

STARTCHAR exclam
ENCODING 33
SWIDTH 430 0
DWIDTH 6 0
BBX 1 9 3 0
BITMAP
80
80
80
80
80
80
00
80
80
ENDCHAR

STARTCHAR quotedbl
ENCODING 34
SWIDTH 430 0
DWIDTH 6 0
BBX 3 3 2 7
BITMAP
A0
A0
A0
ENDCHAR

STARTCHAR numbersign
ENCODING 35
SWIDTH 430 0
DWIDTH 6 0
BBX 5 7 1 1
BITMAP
50
50
F8
50
F8
50
50
ENDCHAR

STARTCHAR dollar
ENCODING 36
SWIDTH 430 0
DWIDTH 6 0
BBX 5 9 1 0
BITMAP
20
70
A8
A0
70
28
A8
70
20
ENDCHAR

STARTCHAR percent
ENCODING 37
SWIDTH 430 0
DWIDTH 6 0
BBX 6 9 0 0
BITMAP
44
A4
A8
50
10
28
54
54
88
ENDCHAR

STARTCHAR ampersand
ENCODING 38
SWIDTH 430 0
DWIDTH 6 0
BBX 5 9 1 0
BITMAP
60
90
80
C0
68
B8
90
90
68
ENDCHAR

STARTCHAR quoteright
ENCODING 39
SWIDTH 430 0
DWIDTH 6 0
BBX 2 2 3 8
BITMAP
40
80
ENDCHAR

STARTCHAR parenleft
ENCODING 40
SWIDTH 430 0
DWIDTH 6 0
BBX 3 11 2 -1
BITMAP
20
40
40
80
80
80
80
80
40
40
20
ENDCHAR

STARTCHAR parenright
ENCODING 41
SWIDTH 430 0
DWIDTH 6 0
BBX 3 11 2 -1
BITMAP
80
40
40
20
20
20
20
20
40
40
80
ENDCHAR

STARTCHAR asterisk
ENCODING 42
SWIDTH 430 0
DWIDTH 6 0
BBX 5 6 1 3
BITMAP
20
A8
70
70
A8
20
ENDCHAR

STARTCHAR plus
ENCODING 43
SWIDTH 430 0
DWIDTH 6 0
BBX 5 5 1 2
BITMAP
20
20
F8
20
20
ENDCHAR

STARTCHAR comma
ENCODING 44
SWIDTH 430 0
DWIDTH 6 0
BBX 2 3 2 -1
BITMAP
40
40
80
ENDCHAR

STARTCHAR minus
ENCODING 45
SWIDTH 430 0
DWIDTH 6 0
BBX 5 1 1 4
BITMAP
F8
ENDCHAR

STARTCHAR period
ENCODING 46
SWIDTH 430 0
DWIDTH 6 0
BBX 1 2 3 0
BITMAP
80
80
ENDCHAR

STARTCHAR slash
ENCODING 47
SWIDTH 430 0
DWIDTH 6 0
BBX 4 11 1 -1
BITMAP
10
10
10
20
20
20
40
40
80
80
80
ENDCHAR

STARTCHAR zero
ENCODING 48
SWIDTH 430 0
DWIDTH 6 0
BBX 4 9 1 0
BITMAP
60
90
90
90
90
90
90
90
60
ENDCHAR

STARTCHAR one
ENCODING 49
SWIDTH 430 0
DWIDTH 6 0
BBX 3 9 2 0
BITMAP
40
C0
40
40
40
40
40
40
E0
ENDCHAR

STARTCHAR two
ENCODING 50
SWIDTH 430 0
DWIDTH 6 0
BBX 4 9 1 0
BITMAP
60
90
10
10
20
40
40
80
F0
ENDCHAR

STARTCHAR three
ENCODING 51
SWIDTH 430 0
DWIDTH 6 0
BBX 4 9 1 0
BITMAP
60
90
10
10
60
10
10
90
60
ENDCHAR

STARTCHAR four
ENCODING 52
SWIDTH 430 0
DWIDTH 6 0
BBX 5 9 1 0
BITMAP
10
30
30
50
50
90
F8
10
10
ENDCHAR

STARTCHAR five
ENCODING 53
SWIDTH 430 0
DWIDTH 6 0
BBX 4 9 1 0
BITMAP
F0
80
80
E0
90
10
10
90
60
ENDCHAR

STARTCHAR six
ENCODING 54
SWIDTH 430 0
DWIDTH 6 0
BBX 4 9 1 0
BITMAP
60
80
80
E0
90
90
90
90
60
ENDCHAR

STARTCHAR seven
ENCODING 55
SWIDTH 430 0
DWIDTH 6 0
BBX 4 9 1 0
BITMAP
F0
10
10
20
20
20
40
40
40
ENDCHAR

STARTCHAR eight
ENCODING 56
SWIDTH 430 0
DWIDTH 6 0
BBX 4 9 1 0
BITMAP
60
90
90
90
60
90
90
90
60
ENDCHAR

STARTCHAR nine
ENCODING 57
SWIDTH 430 0
DWIDTH 6 0
BBX 4 9 1 0
BITMAP
60
90
90
90
90
70
10
10
60
ENDCHAR

STARTCHAR colon
ENCODING 58
SWIDTH 430 0
DWIDTH 6 0
BBX 1 6 3 0
BITMAP
80
80
00
00
80
80
ENDCHAR

STARTCHAR semicolon
ENCODING 59
SWIDTH 430 0
DWIDTH 6 0
BBX 2 7 2 -1
BITMAP
40
40
00
00
40
40
80
ENDCHAR

STARTCHAR less
ENCODING 60
SWIDTH 430 0
DWIDTH 6 0
BBX 4 7 1 0
BITMAP
10
20
40
80
40
20
10
ENDCHAR

STARTCHAR equal
ENCODING 61
SWIDTH 430 0
DWIDTH 6 0
BBX 5 3 1 2
BITMAP
F8
00
F8
ENDCHAR

STARTCHAR greater
ENCODING 62
SWIDTH 430 0
DWIDTH 6 0
BBX 4 7 2 0
BITMAP
80
40
20
10
20
40
80
ENDCHAR

STARTCHAR question
ENCODING 63
SWIDTH 430 0
DWIDTH 6 0
BBX 5 9 1 0
BITMAP
70
88
08
10
20
20
00
20
20
ENDCHAR

STARTCHAR at
ENCODING 64
SWIDTH 430 0
DWIDTH 6 0
BBX 5 9 1 0
BITMAP
70
88
88
98
A8
A8
98
80
78
ENDCHAR

STARTCHAR A
ENCODING 65
SWIDTH 430 0
DWIDTH 6 0
BBX 5 9 1 0
BITMAP
20
50
50
88
88
F8
88
88
88
ENDCHAR

STARTCHAR B
ENCODING 66
SWIDTH 430 0
DWIDTH 6 0
BBX 5 9 1 0
BITMAP
F0
88
88
88
F0
88
88
88
F0
ENDCHAR

STARTCHAR C
ENCODING 67
SWIDTH 430 0
DWIDTH 6 0
BBX 5 9 1 0
BITMAP
70
88
80
80
80
80
80
88
70
ENDCHAR

STARTCHAR D
ENCODING 68
SWIDTH 430 0
DWIDTH 6 0
BBX 5 9 1 0
BITMAP
F0
88
88
88
88
88
88
88
F0
ENDCHAR

STARTCHAR E
ENCODING 69
SWIDTH 430 0
DWIDTH 6 0
BBX 4 9 2 0
BITMAP
F0
80
80
80
E0
80
80
80
F0
ENDCHAR

STARTCHAR F
ENCODING 70
SWIDTH 430 0
DWIDTH 6 0
BBX 4 9 2 0
BITMAP
F0
80
80
80
80
E0
80
80
80
ENDCHAR

STARTCHAR G
ENCODING 71
SWIDTH 430 0
DWIDTH 6 0
BBX 5 9 1 0
BITMAP
70
88
80
80
80
98
88
88
78
ENDCHAR

STARTCHAR H
ENCODING 72
SWIDTH 430 0
DWIDTH 6 0
BBX 5 9 1 0
BITMAP
88
88
88
88
F8
88
88
88
88
ENDCHAR

STARTCHAR I
ENCODING 73
SWIDTH 430 0
DWIDTH 6 0
BBX 5 9 1 0
BITMAP
F8
20
20
20
20
20
20
20
F8
ENDCHAR

STARTCHAR J
ENCODING 74
SWIDTH 430 0
DWIDTH 6 0
BBX 5 9 1 0
BITMAP
78
10
10
10
10
10
10
90
60
ENDCHAR

STARTCHAR K
ENCODING 75
SWIDTH 430 0
DWIDTH 6 0
BBX 5 9 1 0
BITMAP
88
90
A0
C0
C0
A0
90
88
88
ENDCHAR

STARTCHAR L
ENCODING 76
SWIDTH 430 0
DWIDTH 6 0
BBX 4 9 2 0
BITMAP
80
80
80
80
80
80
80
80
F0
ENDCHAR

STARTCHAR M
ENCODING 77
SWIDTH 430 0
DWIDTH 6 0
BBX 5 9 1 0
BITMAP
88
D8
D8
A8
A8
88
88
88
88
ENDCHAR

STARTCHAR N
ENCODING 78
SWIDTH 430 0
DWIDTH 6 0
BBX 5 9 1 0
BITMAP
88
88
C8
A8
A8
A8
98
88
88
ENDCHAR

STARTCHAR O
ENCODING 79
SWIDTH 430 0
DWIDTH 6 0
BBX 5 9 1 0
BITMAP
70
88
88
88
88
88
88
88
70
ENDCHAR

STARTCHAR P
ENCODING 80
SWIDTH 430 0
DWIDTH 6 0
BBX 5 9 1 0
BITMAP
F0
88
88
88
F0
80
80
80
80
ENDCHAR

STARTCHAR Q
ENCODING 81
SWIDTH 430 0
DWIDTH 6 0
BBX 5 10 1 -1
BITMAP
70
88
88
88
88
88
88
A8
70
08
ENDCHAR

STARTCHAR R
ENCODING 82
SWIDTH 430 0
DWIDTH 6 0
BBX 5 9 1 0
BITMAP
F0
88
88
88
F0
A0
90
88
88
ENDCHAR

STARTCHAR S
ENCODING 83
SWIDTH 430 0
DWIDTH 6 0
BBX 5 9 1 0
BITMAP
70
88
80
80
70
08
08
88
70
ENDCHAR

STARTCHAR T
ENCODING 84
SWIDTH 430 0
DWIDTH 6 0
BBX 5 9 1 0
BITMAP
F8
20
20
20
20
20
20
20
20
ENDCHAR

STARTCHAR U
ENCODING 85
SWIDTH 430 0
DWIDTH 6 0
BBX 5 9 1 0
BITMAP
88
88
88
88
88
88
88
88
70
ENDCHAR

STARTCHAR V
ENCODING 86
SWIDTH 430 0
DWIDTH 6 0
BBX 5 9 1 0
BITMAP
88
88
88
88
50
50
20
20
20
ENDCHAR

STARTCHAR W
ENCODING 87
SWIDTH 430 0
DWIDTH 6 0
BBX 5 9 1 0
BITMAP
88
88
88
A8
A8
A8
50
50
50
ENDCHAR

STARTCHAR X
ENCODING 88
SWIDTH 430 0
DWIDTH 6 0
BBX 5 9 1 0
BITMAP
88
88
50
50
20
50
50
88
88
ENDCHAR

STARTCHAR Y
ENCODING 89
SWIDTH 430 0
DWIDTH 6 0
BBX 5 9 1 0
BITMAP
88
88
88
50
50
20
20
20
20
ENDCHAR

STARTCHAR Z
ENCODING 90
SWIDTH 430 0
DWIDTH 6 0
BBX 5 9 1 0
BITMAP
F8
08
10
10
20
40
40
80
F8
ENDCHAR

STARTCHAR bracketleft
ENCODING 91
SWIDTH 430 0
DWIDTH 6 0
BBX 3 11 2 -1
BITMAP
E0
80
80
80
80
80
80
80
80
80
E0
ENDCHAR

STARTCHAR backslash
ENCODING 92
SWIDTH 430 0
DWIDTH 6 0
BBX 4 11 1 -1
BITMAP
80
80
80
40
40
40
20
20
10
10
10
ENDCHAR

STARTCHAR bracketright
ENCODING 93
SWIDTH 430 0
DWIDTH 6 0
BBX 3 11 2 -1
BITMAP
E0
20
20
20
20
20
20
20
20
20
E0
ENDCHAR

STARTCHAR asciicircum
ENCODING 94
SWIDTH 430 0
DWIDTH 6 0
BBX 5 3 1 4
BITMAP
20
50
88
ENDCHAR

STARTCHAR ldblank
ENCODING 95
SWIDTH 430 0
DWIDTH 6 0
BBX 1 1 0 0
BITMAP
00
ENDCHAR

STARTCHAR diamond
ENCODING 96
SWIDTH 430 0
DWIDTH 6 0
BBX 5 5 1 2
BITMAP
20
70
F8
70
20
ENDCHAR

STARTCHAR checkerboard
ENCODING 97
SWIDTH 430 0
DWIDTH 6 0
BBX 6 14 0 -2
BITMAP
54
A8
54
A8
54
A8
54
A8
54
A8
54
A8
54
A8
ENDCHAR

STARTCHAR HT
ENCODING 98
SWIDTH 430 0
DWIDTH 6 0
BBX 4 11 1 -1
BITMAP
90
90
F0
90
90
00
70
20
20
20
20
ENDCHAR

STARTCHAR FF
ENCODING 99
SWIDTH 430 0
DWIDTH 6 0
BBX 4 11 1 -1
BITMAP
E0
80
C0
80
80
00
70
40
60
40
40
ENDCHAR

STARTCHAR CR
ENCODING 100
SWIDTH 430 0
DWIDTH 6 0
BBX 5 11 1 -1
BITMAP
60
90
80
90
60
00
70
50
60
50
48
ENDCHAR

STARTCHAR LF
ENCODING 101
SWIDTH 430 0
DWIDTH 6 0
BBX 4 11 1 -1
BITMAP
80
80
80
80
E0
00
70
40
60
40
40
ENDCHAR

STARTCHAR degree
ENCODING 102
SWIDTH 430 0
DWIDTH 6 0
BBX 4 4 1 6
BITMAP
60
90
90
60
ENDCHAR

STARTCHAR plusminus
ENCODING 103
SWIDTH 430 0
DWIDTH 6 0
BBX 5 7 1 0
BITMAP
20
20
F8
20
20
00
F8
ENDCHAR

STARTCHAR NL
ENCODING 104
SWIDTH 430 0
DWIDTH 6 0
BBX 4 11 1 -1
BITMAP
90
D0
D0
B0
90
00
40
40
40
40
70
ENDCHAR

STARTCHAR VT
ENCODING 105
SWIDTH 430 0
DWIDTH 6 0
BBX 4 11 1 -1
BITMAP
90
90
90
60
60
00
70
20
20
20
20
ENDCHAR

STARTCHAR ldcornsqlr
ENCODING 106
SWIDTH 430 0
DWIDTH 6 0
BBX 3 8 0 4
BITMAP
20
20
20
20
20
20
20
E0
ENDCHAR

STARTCHAR ldcornsqur
ENCODING 107
SWIDTH 430 0
DWIDTH 6 0
BBX 3 7 0 -2
BITMAP
E0
20
20
20
20
20
20
ENDCHAR

STARTCHAR ldcornsqul
ENCODING 108
SWIDTH 430 0
DWIDTH 6 0
BBX 4 7 2 -2
BITMAP
F0
80
80
80
80
80
80
ENDCHAR

STARTCHAR ldcornsqll
ENCODING 109
SWIDTH 430 0
DWIDTH 6 0
BBX 4 8 2 4
BITMAP
80
80
80
80
80
80
80
F0
ENDCHAR

STARTCHAR ldcross
ENCODING 110
SWIDTH 430 0
DWIDTH 6 0
BBX 6 14 0 -2
BITMAP
20
20
20
20
20
20
20
FC
20
20
20
20
20
20
ENDCHAR

STARTCHAR ldscan1
ENCODING 111
SWIDTH 430 0
DWIDTH 6 0
BBX 6 1 0 10
BITMAP
FC
ENDCHAR

STARTCHAR ldscan3
ENCODING 112
SWIDTH 430 0
DWIDTH 6 0
BBX 6 1 0 7
BITMAP
FC
ENDCHAR

STARTCHAR ldhorizontal
ENCODING 113
SWIDTH 430 0
DWIDTH 6 0
BBX 6 1 0 4
BITMAP
FC
ENDCHAR

STARTCHAR ldscan7
ENCODING 114
SWIDTH 430 0
DWIDTH 6 0
BBX 6 1 0 1
BITMAP
FC
ENDCHAR

STARTCHAR ldscan9
ENCODING 115
SWIDTH 430 0
DWIDTH 6 0
BBX 6 1 0 -2
BITMAP
FC
ENDCHAR

STARTCHAR ldteelft
ENCODING 116
SWIDTH 430 0
DWIDTH 6 0
BBX 4 14 2 -2
BITMAP
80
80
80
80
80
80
80
F0
80
80
80
80
80
80
ENDCHAR

STARTCHAR ldteert
ENCODING 117
SWIDTH 430 0
DWIDTH 6 0
BBX 3 14 0 -2
BITMAP
20
20
20
20
20
20
20
E0
20
20
20
20
20
20
ENDCHAR

STARTCHAR ldteebt
ENCODING 118
SWIDTH 430 0
DWIDTH 6 0
BBX 6 8 0 4
BITMAP
20
20
20
20
20
20
20
FC
ENDCHAR

STARTCHAR ldteetp
ENCODING 119
SWIDTH 430 0
DWIDTH 6 0
BBX 6 7 0 -2
BITMAP
FC
20
20
20
20
20
20
ENDCHAR

STARTCHAR ldvertical
ENCODING 120
SWIDTH 430 0
DWIDTH 6 0
BBX 1 14 2 -2
BITMAP
80
80
80
80
80
80
80
80
80
80
80
80
80
80
ENDCHAR

STARTCHAR lessequal
ENCODING 121
SWIDTH 430 0
DWIDTH 6 0
BBX 5 8 1 0
BITMAP
10
20
40
80
40
20
10
F8
ENDCHAR

STARTCHAR greaterequal
ENCODING 122
SWIDTH 430 0
DWIDTH 6 0
BBX 5 8 1 0
BITMAP
40
20
10
08
10
20
40
F8
ENDCHAR

STARTCHAR pi
ENCODING 123
SWIDTH 430 0
DWIDTH 6 0
BBX 5 7 1 0
BITMAP
F8
50
50
50
50
50
90
ENDCHAR

STARTCHAR notequal
ENCODING 124
SWIDTH 430 0
DWIDTH 6 0
BBX 5 5 1 1
BITMAP
10
F8
20
F8
40
ENDCHAR

STARTCHAR sterling
ENCODING 125
SWIDTH 430 0
DWIDTH 6 0
BBX 5 9 1 0
BITMAP
30
48
40
40
E0
40
40
48
B0
ENDCHAR

STARTCHAR periodcentered
ENCODING 126
SWIDTH 430 0
DWIDTH 6 0
BBX 1 2 3 3
BITMAP
80
80
ENDCHAR

STARTCHAR Error
ENCODING 159
SWIDTH 430 0
DWIDTH 6 0
BBX 6 14 0 -2
BITMAP
78
FC
CC
CC
C0
C0
60
30
30
30
00
30
30
30
ENDCHAR

STARTCHAR space
ENCODING 160
SWIDTH 430 0
DWIDTH 6 0
BBX 1 1 0 0
BITMAP
00
ENDCHAR

STARTCHAR ldradicalbt
ENCODING 161
SWIDTH 430 0
DWIDTH 6 0
BBX 4 12 0 0
BITMAP
10
10
10
10
10
10
10
10
10
D0
30
10
ENDCHAR

STARTCHAR ldradicaltp
ENCODING 162
SWIDTH 430 0
DWIDTH 6 0
BBX 3 7 3 -2
BITMAP
E0
80
80
80
80
80
80
ENDCHAR

STARTCHAR ldhorizontal
ENCODING 163
SWIDTH 430 0
DWIDTH 6 0
BBX 6 1 0 4
BITMAP
FC
ENDCHAR

STARTCHAR ldintegraltp
ENCODING 164
SWIDTH 430 0
DWIDTH 6 0
BBX 3 12 3 -2
BITMAP
40
A0
80
80
80
80
80
80
80
80
80
80
ENDCHAR

STARTCHAR ldintegralbt
ENCODING 165
SWIDTH 430 0
DWIDTH 6 0
BBX 3 13 1 -1
BITMAP
20
20
20
20
20
20
20
20
20
20
20
A0
40
ENDCHAR

STARTCHAR ldvertical
ENCODING 166
SWIDTH 430 0
DWIDTH 6 0
BBX 1 14 3 -2
BITMAP
80
80
80
80
80
80
80
80
80
80
80
80
80
80
ENDCHAR

STARTCHAR ldbracketlfttp
ENCODING 167
SWIDTH 430 0
DWIDTH 6 0
BBX 3 12 3 -2
BITMAP
E0
80
80
80
80
80
80
80
80
80
80
80
ENDCHAR

STARTCHAR ldbracketlftbt
ENCODING 168
SWIDTH 430 0
DWIDTH 6 0
BBX 3 13 3 -1
BITMAP
80
80
80
80
80
80
80
80
80
80
80
80
E0
ENDCHAR

STARTCHAR ldbracketrttp
ENCODING 169
SWIDTH 430 0
DWIDTH 6 0
BBX 3 12 1 -2
BITMAP
E0
20
20
20
20
20
20
20
20
20
20
20
ENDCHAR

STARTCHAR ldbracketrtbt
ENCODING 170
SWIDTH 430 0
DWIDTH 6 0
BBX 3 13 1 -1
BITMAP
20
20
20
20
20
20
20
20
20
20
20
20
E0
ENDCHAR

STARTCHAR ldbracelfttp
ENCODING 171
SWIDTH 430 0
DWIDTH 6 0
BBX 3 12 3 -2
BITMAP
60
80
80
80
80
80
80
80
80
80
80
80
ENDCHAR

STARTCHAR ldbracelftbt
ENCODING 172
SWIDTH 430 0
DWIDTH 6 0
BBX 3 13 3 -1
BITMAP
80
80
80
80
80
80
80
80
80
80
80
80
60
ENDCHAR

STARTCHAR ldbracerttp
ENCODING 173
SWIDTH 430 0
DWIDTH 6 0
BBX 3 12 1 -2
BITMAP
C0
20
20
20
20
20
20
20
20
20
20
20
ENDCHAR

STARTCHAR ldbracertbt
ENCODING 174
SWIDTH 430 0
DWIDTH 6 0
BBX 3 13 1 -1
BITMAP
20
20
20
20
20
20
20
20
20
20
20
20
C0
ENDCHAR

STARTCHAR ldbracelftmid
ENCODING 175
SWIDTH 430 0
DWIDTH 6 0
BBX 3 14 1 -2
BITMAP
20
20
20
20
20
20
40
80
40
20
20
20
20
20
ENDCHAR

STARTCHAR ldbracertmid
ENCODING 176
SWIDTH 430 0
DWIDTH 6 0
BBX 3 14 3 -2
BITMAP
80
80
80
80
80
80
40
20
40
80
80
80
80
80
ENDCHAR

STARTCHAR ldsigmalfttp
ENCODING 177
SWIDTH 430 0
DWIDTH 6 0
BBX 4 7 2 -2
BITMAP
F0
80
40
40
20
20
10
ENDCHAR

STARTCHAR ldsigmalftbt
ENCODING 178
SWIDTH 430 0
DWIDTH 6 0
BBX 4 8 2 4
BITMAP
10
20
20
40
40
80
80
F0
ENDCHAR

STARTCHAR ldbackslash
ENCODING 179
SWIDTH 430 0
DWIDTH 6 0
BBX 6 14 0 -2
BITMAP
80
80
40
40
60
20
20
10
10
18
08
08
04
04
ENDCHAR

STARTCHAR ldslash
ENCODING 180
SWIDTH 430 0
DWIDTH 6 0
BBX 6 14 0 -2
BITMAP
04
04
08
08
18
10
10
20
20
60
40
40
80
80
ENDCHAR

STARTCHAR ldsigmarttp
ENCODING 181
SWIDTH 430 0
DWIDTH 6 0
BBX 5 3 0 2
BITMAP
F8
08
08
ENDCHAR

STARTCHAR ldsigmartbt
ENCODING 182
SWIDTH 430 0
DWIDTH 6 0
BBX 5 3 0 4
BITMAP
08
08
F8
ENDCHAR

STARTCHAR ldsigmamid
ENCODING 183
SWIDTH 430 0
DWIDTH 6 0
BBX 4 14 0 -2
BITMAP
80
80
40
40
20
20
10
10
20
20
40
40
80
80
ENDCHAR

STARTCHAR lessequal
ENCODING 188
SWIDTH 430 0
DWIDTH 6 0
BBX 5 8 1 0
BITMAP
10
20
40
80
40
20
10
F8
ENDCHAR

STARTCHAR notequal
ENCODING 189
SWIDTH 430 0
DWIDTH 6 0
BBX 5 5 1 1
BITMAP
10
F8
20
F8
40
ENDCHAR

STARTCHAR greaterequal
ENCODING 190
SWIDTH 430 0
DWIDTH 6 0
BBX 5 8 1 0
BITMAP
40
20
10
08
10
20
40
F8
ENDCHAR

STARTCHAR integral
ENCODING 191
SWIDTH 430 0
DWIDTH 6 0
BBX 5 11 1 -1
BITMAP
10
28
20
20
20
20
20
20
20
A0
40
ENDCHAR

STARTCHAR therefore
ENCODING 192
SWIDTH 430 0
DWIDTH 6 0
BBX 5 5 1 2
BITMAP
20
00
00
00
88
ENDCHAR

STARTCHAR proportional
ENCODING 193
SWIDTH 430 0
DWIDTH 6 0
BBX 5 6 1 1
BITMAP
50
A8
A0
A0
A8
50
ENDCHAR

STARTCHAR infinity
ENCODING 194
SWIDTH 430 0
DWIDTH 6 0
BBX 5 6 1 1
BITMAP
50
A8
A8
A8
A8
50
ENDCHAR

STARTCHAR divide
ENCODING 195
SWIDTH 430 0
DWIDTH 6 0
BBX 5 5 1 2
BITMAP
20
00
F8
00
20
ENDCHAR

STARTCHAR Delta
ENCODING 196
SWIDTH 430 0
DWIDTH 6 0
BBX 5 5 1 2
BITMAP
20
50
88
88
F8
ENDCHAR

STARTCHAR gradient
ENCODING 197
SWIDTH 430 0
DWIDTH 6 0
BBX 5 5 1 2
BITMAP
F8
88
88
50
20
ENDCHAR

STARTCHAR Phi
ENCODING 198
SWIDTH 430 0
DWIDTH 6 0
BBX 5 9 1 0
BITMAP
70
20
70
A8
A8
A8
70
20
70
ENDCHAR

STARTCHAR Gamma
ENCODING 199
SWIDTH 430 0
DWIDTH 6 0
BBX 5 9 1 0
BITMAP
F8
48
40
40
40
40
40
40
E0
ENDCHAR

STARTCHAR similar
ENCODING 200
SWIDTH 430 0
DWIDTH 6 0
BBX 5 4 1 2
BITMAP
48
A8
A8
90
ENDCHAR

STARTCHAR approxequal
ENCODING 201
SWIDTH 430 0
DWIDTH 6 0
BBX 5 6 1 1
BITMAP
48
A8
A8
90
00
F8
ENDCHAR

STARTCHAR Theta
ENCODING 202
SWIDTH 430 0
DWIDTH 6 0
BBX 5 9 1 0
BITMAP
20
50
88
88
D8
88
88
50
20
ENDCHAR

STARTCHAR multiply
ENCODING 203
SWIDTH 430 0
DWIDTH 6 0
BBX 5 5 1 2
BITMAP
88
50
20
50
88
ENDCHAR

STARTCHAR Lambda
ENCODING 204
SWIDTH 430 0
DWIDTH 6 0
BBX 5 9 1 0
BITMAP
20
20
50
50
50
88
88
88
F8
ENDCHAR

STARTCHAR arrowdblboth
ENCODING 205
SWIDTH 430 0
DWIDTH 6 0
BBX 6 7 0 1
BITMAP
48
84
FC
00
FC
84
48
ENDCHAR

STARTCHAR arrowdblright
ENCODING 206
SWIDTH 430 0
DWIDTH 6 0
BBX 5 7 1 1
BITMAP
40
20
F0
08
F0
20
40
ENDCHAR

STARTCHAR equivalence
ENCODING 207
SWIDTH 430 0
DWIDTH 6 0
BBX 5 5 1 2
BITMAP
F8
00
F8
00
F8
ENDCHAR

STARTCHAR Pi
ENCODING 208
SWIDTH 430 0
DWIDTH 6 0
BBX 5 9 1 0
BITMAP
F8
50
50
50
50
50
50
50
50
ENDCHAR

STARTCHAR Psi
ENCODING 209
SWIDTH 430 0
DWIDTH 6 0
BBX 5 9 1 0
BITMAP
88
A8
A8
A8
A8
A8
70
20
70
ENDCHAR

STARTCHAR Sigma
ENCODING 211
SWIDTH 430 0
DWIDTH 6 0
BBX 5 9 1 0
BITMAP
F8
88
48
20
10
20
40
88
F8
ENDCHAR

STARTCHAR radical
ENCODING 214
SWIDTH 430 0
DWIDTH 6 0
BBX 6 10 0 0
BITMAP
04
04
08
08
08
10
D0
50
20
20
ENDCHAR

STARTCHAR Omega
ENCODING 215
SWIDTH 430 0
DWIDTH 6 0
BBX 5 9 1 0
BITMAP
70
88
88
88
88
88
50
50
D8
ENDCHAR

STARTCHAR Xi
ENCODING 216
SWIDTH 430 0
DWIDTH 6 0
BBX 5 9 1 0
BITMAP
F8
00
00
00
70
00
00
00
F8
ENDCHAR

STARTCHAR Upsilon1
ENCODING 217
SWIDTH 430 0
DWIDTH 6 0
BBX 5 9 1 0
BITMAP
88
88
88
50
50
20
20
20
20
ENDCHAR

STARTCHAR propersubset
ENCODING 218
SWIDTH 430 0
DWIDTH 6 0
BBX 5 5 1 2
BITMAP
78
80
80
80
78
ENDCHAR

STARTCHAR propersuperset
ENCODING 219
SWIDTH 430 0
DWIDTH 6 0
BBX 5 5 1 2
BITMAP
F0
08
08
08
F0
ENDCHAR

STARTCHAR intersection
ENCODING 220
SWIDTH 430 0
DWIDTH 6 0
BBX 5 5 1 2
BITMAP
70
88
88
88
88
ENDCHAR

STARTCHAR union
ENCODING 221
SWIDTH 430 0
DWIDTH 6 0
BBX 5 5 1 2
BITMAP
88
88
88
88
70
ENDCHAR

STARTCHAR logicaland
ENCODING 222
SWIDTH 430 0
DWIDTH 6 0
BBX 5 5 1 2
BITMAP
20
70
50
88
88
ENDCHAR

STARTCHAR logicalor
ENCODING 223
SWIDTH 430 0
DWIDTH 6 0
BBX 5 5 1 2
BITMAP
88
88
50
70
20
ENDCHAR

STARTCHAR logicalnot
ENCODING 224
SWIDTH 430 0
DWIDTH 6 0
BBX 5 3 1 2
BITMAP
F8
08
08
ENDCHAR

STARTCHAR alpha
ENCODING 225
SWIDTH 430 0
DWIDTH 6 0
BBX 5 7 1 0
BITMAP
20
58
90
90
90
90
68
ENDCHAR

STARTCHAR beta
ENCODING 226
SWIDTH 430 0
DWIDTH 6 0
BBX 6 9 0 0
BITMAP
18
14
24
24
38
48
48
C8
F0
ENDCHAR

STARTCHAR chi
ENCODING 227
SWIDTH 430 0
DWIDTH 6 0
BBX 5 9 1 -2
BITMAP
80
88
48
50
30
20
50
88
88
ENDCHAR

STARTCHAR delta
ENCODING 228
SWIDTH 430 0
DWIDTH 6 0
BBX 5 9 1 0
BITMAP
30
48
48
20
50
88
88
88
70
ENDCHAR

STARTCHAR epsilon
ENCODING 229
SWIDTH 430 0
DWIDTH 6 0
BBX 5 6 1 0
BITMAP
78
80
F0
80
80
78
ENDCHAR

STARTCHAR phi
ENCODING 230
SWIDTH 430 0
DWIDTH 6 0
BBX 5 8 1 -1
BITMAP
08
70
98
A8
A8
C8
70
80
ENDCHAR

STARTCHAR gamma
ENCODING 231
SWIDTH 430 0
DWIDTH 6 0
BBX 6 10 0 -2
BITMAP
40
A4
24
28
18
10
10
30
20
20
ENDCHAR

STARTCHAR eta
ENCODING 232
SWIDTH 430 0
DWIDTH 6 0
BBX 6 9 0 -2
BITMAP
D8
64
44
44
44
44
44
04
04
ENDCHAR

STARTCHAR iota
ENCODING 233
SWIDTH 430 0
DWIDTH 6 0
BBX 5 7 1 0
BITMAP
C0
40
40
40
40
48
30
ENDCHAR

STARTCHAR theta
ENCODING 234
SWIDTH 430 0
DWIDTH 6 0
BBX 5 9 1 0
BITMAP
30
48
48
88
F8
88
90
90
60
ENDCHAR

STARTCHAR kappa
ENCODING 235
SWIDTH 430 0
DWIDTH 6 0
BBX 5 9 1 0
BITMAP
80
40
48
48
50
60
60
50
48
ENDCHAR

STARTCHAR lambda
ENCODING 236
SWIDTH 430 0
DWIDTH 6 0
BBX 5 9 1 0
BITMAP
80
40
20
20
30
50
50
88
88
ENDCHAR

STARTCHAR nu
ENCODING 238
SWIDTH 430 0
DWIDTH 6 0
BBX 5 7 1 0
BITMAP
88
48
48
48
48
50
E0
ENDCHAR

STARTCHAR partialdiff
ENCODING 239
SWIDTH 430 0
DWIDTH 6 0
BBX 5 7 1 0
BITMAP
E0
10
38
48
88
88
70
ENDCHAR

STARTCHAR pi
ENCODING 240
SWIDTH 430 0
DWIDTH 6 0
BBX 5 7 1 0
BITMAP
F8
50
50
50
50
50
90
ENDCHAR

STARTCHAR psi
ENCODING 241
SWIDTH 430 0
DWIDTH 6 0
BBX 5 9 1 -1
BITMAP
20
20
A8
A8
A8
70
20
20
20
ENDCHAR

STARTCHAR rho
ENCODING 242
SWIDTH 430 0
DWIDTH 6 0
BBX 5 9 1 -2
BITMAP
30
48
48
88
88
90
E0
80
80
ENDCHAR

STARTCHAR sigma
ENCODING 243
SWIDTH 430 0
DWIDTH 6 0
BBX 5 7 1 0
BITMAP
38
50
88
88
88
88
70
ENDCHAR

STARTCHAR tau
ENCODING 244
SWIDTH 430 0
DWIDTH 6 0
BBX 6 8 0 0
BITMAP
04
78
90
10
10
10
10
08
ENDCHAR

STARTCHAR florin
ENCODING 246
SWIDTH 430 0
DWIDTH 6 0
BBX 5 11 1 -2
BITMAP
10
28
20
20
70
20
20
20
20
A0
40
ENDCHAR

STARTCHAR omega
ENCODING 247
SWIDTH 430 0
DWIDTH 6 0
BBX 5 7 1 0
BITMAP
50
88
88
A8
A8
D8
50
ENDCHAR

STARTCHAR xi
ENCODING 248
SWIDTH 430 0
DWIDTH 6 0
BBX 5 11 0 -2
BITMAP
78
98
20
20
38
40
40
40
38
10
20
ENDCHAR

STARTCHAR upsilon
ENCODING 249
SWIDTH 430 0
DWIDTH 6 0
BBX 6 8 0 0
BITMAP
80
44
44
44
44
48
48
30
ENDCHAR

STARTCHAR zeta
ENCODING 250
SWIDTH 430 0
DWIDTH 6 0
BBX 5 11 0 -2
BITMAP
78
98
20
20
40
40
40
40
38
10
20
ENDCHAR

STARTCHAR arrowleft
ENCODING 251
SWIDTH 430 0
DWIDTH 6 0
BBX 5 5 1 2
BITMAP
20
40
F8
40
20
ENDCHAR

STARTCHAR arrowup
ENCODING 252
SWIDTH 430 0
DWIDTH 6 0
BBX 5 6 1 1
BITMAP
20
70
A8
20
20
20
ENDCHAR

STARTCHAR arrowright
ENCODING 253
SWIDTH 430 0
DWIDTH 6 0
BBX 5 5 0 2
BITMAP
20
10
F8
10
20
ENDCHAR

STARTCHAR arrowdown
ENCODING 254
SWIDTH 430 0
DWIDTH 6 0
BBX 5 6 1 1
BITMAP
20
20
20
A8
70
20
ENDCHAR
ENDFONT
